<svg width="263" height="34" viewBox="0 0 263 34" fill="none" xmlns="http://www.w3.org/2000/svg">
<g style="mix-blend-mode:difference">
<path d="M13.968 0.864V9.756C12.78 8.388 11.016 7.56 8.604 7.56C3.888 7.56 0 11.7 0 17.064C0 22.428 3.888 26.568 8.604 26.568C11.016 26.568 12.78 25.74 13.968 24.372V26.064H19.368V0.864H13.968ZM9.684 21.456C7.2 21.456 5.4 19.764 5.4 17.064C5.4 14.364 7.2 12.672 9.684 12.672C12.168 12.672 13.968 14.364 13.968 17.064C13.968 19.764 12.168 21.456 9.684 21.456Z" fill="white"/>
<path d="M36.3977 8.064V9.756C35.2097 8.388 33.4457 7.56 31.0337 7.56C26.3177 7.56 22.4297 11.7 22.4297 17.064C22.4297 22.428 26.3177 26.568 31.0337 26.568C33.4457 26.568 35.2097 25.74 36.3977 24.372V26.064H41.7977V8.064H36.3977Z" fill="white"/>
<path d="M65.9194 7.56C63.3634 7.56 61.7074 8.496 60.6994 9.936C59.6914 8.424 58.1074 7.56 55.9834 7.56C53.5714 7.56 51.9874 8.496 51.1594 9.72V8.064H45.7594V26.064H51.1594V15.912C51.1594 13.788 52.1674 12.528 53.9674 12.528C55.6954 12.528 56.5594 13.68 56.5594 15.48V26.064H61.9594V15.912C61.9594 13.788 62.9674 12.528 64.7674 12.528C66.4954 12.528 67.3594 13.68 67.3594 15.48V26.064H72.7594V15.012C72.7594 10.512 70.0594 7.56 65.9194 7.56Z" fill="white"/>
<path d="M79.1508 6.48C80.9148 6.48 82.3908 5.004 82.3908 3.24C82.3908 1.476 80.9148 0 79.1508 0C77.3868 0 75.9108 1.476 75.9108 3.24C75.9108 5.004 77.3868 6.48 79.1508 6.48ZM76.4508 26.064H81.8508V8.064H76.4508V26.064Z" fill="white"/>
<path d="M90.6263 19.224H103.406C103.55 18.54 103.622 17.82 103.622 17.064C103.622 11.628 99.7343 7.56 94.4783 7.56C88.7903 7.56 84.9023 11.7 84.9023 17.064C84.9023 22.428 88.7183 26.568 94.8743 26.568C98.2943 26.568 100.958 25.308 102.722 22.86L98.4023 20.376C97.6823 21.168 96.4223 21.744 94.9463 21.744C92.9663 21.744 91.3103 21.096 90.6263 19.224ZM90.5183 15.192C91.0223 13.356 92.3903 12.348 94.4423 12.348C96.0623 12.348 97.6824 13.104 98.2583 15.192H90.5183Z" fill="white"/>
<path d="M117.233 7.56C114.857 7.56 113.057 8.424 112.085 9.756V8.064H106.685V26.064H112.085V16.236C112.085 13.68 113.453 12.528 115.433 12.528C117.161 12.528 118.565 13.572 118.565 15.804V26.064H123.965V15.012C123.965 10.152 120.869 7.56 117.233 7.56Z" fill="white"/>
<path d="M139.709 26.46C143.237 26.46 146.261 24.66 147.701 21.888L146.189 20.988C145.001 23.22 142.625 24.732 139.709 24.732C135.353 24.732 132.077 21.348 132.077 17.064C132.077 12.78 135.353 9.396 139.709 9.396C142.589 9.396 145.037 10.872 146.081 13.14L147.557 12.276C146.261 9.468 143.237 7.668 139.709 7.668C134.273 7.668 130.241 11.736 130.241 17.064C130.241 22.392 134.273 26.46 139.709 26.46Z" fill="white"/>
<path d="M159.889 7.668C157.117 7.668 154.813 8.82 153.445 11.484V0.864H151.645V26.064H153.445V16.56C153.445 11.7 156.217 9.396 159.745 9.396C163.129 9.396 165.037 11.556 165.037 14.868V26.064H166.873V14.868C166.873 10.512 164.173 7.668 159.889 7.668Z" fill="white"/>
<path d="M187.805 8.064V12.132C186.293 9.432 183.521 7.668 180.065 7.668C174.953 7.668 170.741 11.736 170.741 17.064C170.741 22.392 174.953 26.46 180.065 26.46C183.521 26.46 186.293 24.696 187.805 21.996V26.064H189.641V8.064H187.805ZM180.209 24.732C175.925 24.732 172.577 21.348 172.577 17.064C172.577 12.78 175.925 9.396 180.209 9.396C184.493 9.396 187.805 12.78 187.805 17.064C187.805 21.348 184.493 24.732 180.209 24.732Z" fill="white"/>
<path d="M204.709 7.668C201.217 7.668 198.445 9.468 196.969 12.24V8.064H195.169V33.264H196.969V21.888C198.445 24.66 201.217 26.46 204.709 26.46C209.857 26.46 214.033 22.392 214.033 17.064C214.033 11.736 209.857 7.668 204.709 7.668ZM204.601 24.732C200.317 24.732 196.969 21.348 196.969 17.064C196.969 12.78 200.317 9.396 204.601 9.396C208.885 9.396 212.233 12.78 212.233 17.064C212.233 21.348 208.885 24.732 204.601 24.732Z" fill="white"/>
<path d="M234.212 8.064V12.132C232.7 9.432 229.928 7.668 226.472 7.668C221.36 7.668 217.148 11.736 217.148 17.064C217.148 22.392 221.36 26.46 226.472 26.46C229.928 26.46 232.7 24.696 234.212 21.996V26.064H236.048V8.064H234.212ZM226.616 24.732C222.332 24.732 218.984 21.348 218.984 17.064C218.984 12.78 222.332 9.396 226.616 9.396C230.9 9.396 234.212 12.78 234.212 17.064C234.212 21.348 230.9 24.732 226.616 24.732Z" fill="white"/>
<path d="M243.375 11.592V8.064H241.575V26.064H243.375V16.056C243.375 11.448 246.291 9.54 249.387 9.54V7.812C246.939 7.812 244.599 8.748 243.375 11.592Z" fill="white"/>
<path d="M262.498 9.828V8.064H257.134V3.024L255.298 3.564V8.064H251.338V9.828H255.298V21.528C255.298 25.632 257.782 26.784 262.498 26.064V24.444C258.826 24.768 257.134 24.696 257.134 21.528V9.828H262.498Z" fill="white"/>
</g>
</svg>
